# xmcd
#
# Track frame offsets:
#	150
#	11475
#	22650
#	34412
#	47850
#	62165
#	76187
#	89850
#	102292
#	123000
#	151187
#	165362
#	176837
#
# Disc length: 2536 seconds
#
# Revision: 0
# Processed by: cddbd v1.5.2PL0 Copyright (c) Steve Scherf et al.
# Submitted via: EZCDAudioConverter 2.3.5.1
#
DISCID=9709e60d
DTITLE=Artisti vari - The Best - Bay city blues
DYEAR=1993
DGENRE=Blues
TTITLE0=Bo Diddley - Who do you love
TTITLE1=Bo Diddley - Diddley Daddy
TTITLE2=Jesse Fuller - Jesse's new midnight special
TTITLE3=Jesse Fuller - San Francisco bay blues
TTITLE4=Jimmy Witherspoon - Mean old frisco
TTITLE5=Jimmy Witherspoon - Bad bad whiskey
TTITLE6=Elmore James - Dust my broom
TTITLE7=Elmore James - The sun is shining
TTITLE8=Sonny Terry and Brownie McGhee - John Henry
TTITLE9=Sonny Terry and Brownie McGhee - Betty and Dupree's blues
TTITLE10=Sonny Terry and Brownie McGhee - Motherless child
TTITLE11=Sonny Terry and Brownie McGhee - The dvil's gonna get you
TTITLE12=Roy Milton - R.M. blues
EXTD=
EXTT0=
EXTT1=
EXTT2=
EXTT3=
EXTT4=
EXTT5=
EXTT6=
EXTT7=
EXTT8=
EXTT9=
EXTT10=
EXTT11=
EXTT12=
PLAYORDER=
